<?xml version="1.0" encoding="utf-8"?>
<!-- Generator: Adobe Illustrator 21.1.0, SVG Export Plug-In . SVG Version: 6.00 Build 0)  -->
<svg version="1.1" id="Layer_1" xmlns="http://www.w3.org/2000/svg" xmlns:xlink="http://www.w3.org/1999/xlink" x="0px" y="0px"
	 viewBox="0 0 1240 322.1" style="enable-background:new 0 0 1240 322.1;" xml:space="preserve">
<style type="text/css">
	.st0{fill:#FFFFFF;}
</style>
<g>
	<g>
		<path className="st0" d="M133.6,131.8c-1.3,4.1-3,7.6-5.2,10.5c-2.2,2.9-4.8,5.3-7.7,7.3c-2.9,1.9-6,3.5-9.3,4.6
			c-3.3,1.1-6.7,1.9-10.2,2.4c-3.5,0.5-6.9,0.7-10.2,0.7H52v-1.1c1.8-0.2,3.5-0.7,5.2-1.4c1.7-0.7,2.9-1.6,3.8-2.6
			c0.4-0.4,0.6-1,0.8-1.8c0.2-0.9,0.3-1.8,0.5-2.9c0.1-1.1,0.2-2.2,0.3-3.4c0.1-1.2,0.1-2.4,0.1-3.5c0-1,0-2.4,0.1-4.1
			c0-1.7,0.1-3.6,0.1-5.6c0-2,0.1-4.1,0.1-6.3c0-2.2,0-4.3,0-6.2V97.6c0-1.3,0-2.6,0-3.9c0-1.3-0.1-2.5-0.2-3.6
			c-0.1-1.1-0.3-2.1-0.5-3c-0.2-0.9-0.5-1.6-1-2.1c-1.1-1.3-2.4-2.2-3.9-2.7c-1.5-0.5-3.2-0.9-5-1.1v-1.1c3,0,7.3,0,12.9-0.1
			c5.6,0,12.4-0.1,20.4-0.1c2.3,0,4.6,0,6.8,0c2.4,0,4.7,0.1,7.1,0.3c2.4,0.2,4.7,0.6,7.1,1.1c2.4,0.5,4.7,1.2,7,2.2
			c3,1.3,5.8,2.9,8.5,4.9c2.6,2,4.9,4.4,6.9,7.1c2,2.7,3.5,5.9,4.7,9.5c1.2,3.6,1.8,7.7,1.8,12.4C135.6,123,134.9,127.8,133.6,131.8
			z M120.5,105.8c-1.3-3.9-3.1-7.5-5.3-10.6c-2.3-3.2-5-5.9-8.1-8.1c-3.1-2.2-6.6-3.6-10.3-4.3c-1.4-0.3-3-0.5-4.7-0.7
			c-1.7-0.2-3.8-0.3-6.3-0.3c-0.9,0-1.8,0-2.8,0.1c-1,0-2,0.1-2.9,0.2c-1,0.1-1.9,0.2-2.7,0.3c-0.8,0.1-1.5,0.2-2,0.3
			c-0.4,3.5-0.6,8.3-0.6,14.4c-0.1,6.1-0.1,13.4-0.1,21.9c0,4.6,0,8.7,0,12.5c0,3.7,0,6.7,0.1,9.1c0,1,0.1,2.1,0.2,3.3
			c0.1,1.2,0.2,2.3,0.4,3.4c0.1,1.1,0.4,2.1,0.7,3c0.3,0.9,0.7,1.6,1.1,2c1.4,1.4,3.2,2.3,5.4,2.7c2.2,0.4,4.2,0.6,6.2,0.6
			c1.8,0,3.6-0.1,5.5-0.3c1.9-0.2,3.7-0.5,5.3-1c7.7-2.2,13.5-6.5,17.3-12.9c3.8-6.4,5.7-14.2,5.7-23.6
			C122.4,113.8,121.8,109.7,120.5,105.8z"/>
		<path className="st0" d="M240.3,134.1c-2.1,4.9-5,9.1-8.7,12.6c-3.7,3.6-8,6.3-12.8,8.2c-4.9,1.9-10.1,2.9-15.6,2.9
			c-5.4,0-10.6-0.9-15.4-2.8c-4.9-1.9-9.1-4.6-12.7-8c-3.6-3.5-6.5-7.6-8.6-12.4c-2.1-4.8-3.2-10.1-3.2-15.9
			c0-6.1,1.1-11.6,3.3-16.5c2.2-4.9,5.2-9,8.9-12.4c3.7-3.4,8.1-6,13.2-7.8c5-1.8,10.3-2.7,15.9-2.7c6.1,0,11.5,1.1,16.3,3.2
			c4.8,2.1,8.9,5,12.3,8.6c3.4,3.6,5.9,7.8,7.7,12.5c1.8,4.7,2.7,9.6,2.7,14.8C243.5,123.9,242.5,129.2,240.3,134.1z M228.6,105.2
			c-1.1-4.4-2.8-8.4-5-12c-2.2-3.6-5-6.5-8.4-8.8c-3.4-2.2-7.3-3.4-11.9-3.4c-4.6,0-8.6,1.1-12,3.4c-3.4,2.2-6.2,5.2-8.3,8.7
			c-2.2,3.6-3.8,7.6-4.8,12.1c-1,4.5-1.6,9.1-1.6,13.7c0,4.9,0.6,9.5,1.7,14c1.1,4.5,2.8,8.5,5.1,11.9c2.2,3.4,5.1,6.2,8.5,8.2
			c3.4,2.1,7.3,3.1,11.8,3.1c4.5,0,8.4-1.1,11.7-3.4c3.3-2.3,6.1-5.2,8.3-8.8c2.2-3.6,3.9-7.7,5-12.1c1.1-4.5,1.7-9,1.7-13.5
			C230.3,114,229.7,109.6,228.6,105.2z"/>
		<path className="st0" d="M325.6,145.4c-1.4,2.7-3.3,5-5.8,7c-2.5,1.9-5.4,3.4-8.8,4.3c-3.4,0.9-7.2,1.4-11.2,1.4c-3.5,0-6.5-0.2-9-0.6
			c-2.5-0.4-4.6-0.9-6.2-1.6c-1.6-0.6-2.9-1.2-3.7-1.7c-0.8-0.5-1.3-0.7-1.6-0.7s-0.7,0.4-1.4,1.3c-0.7,0.9-1.4,1.7-1.9,2.5h-1
			l-0.3-21.3h1.1c0.6,1.9,1.5,3.8,2.5,5.6c1,1.8,2.1,3.5,3.3,5.1c1.2,1.6,2.4,3,3.7,4.2c1.3,1.2,2.6,2.1,3.8,2.8
			c1.2,0.6,2.8,1.3,4.8,1.9c2,0.6,3.9,1,5.8,1c5.3,0,9.6-1.4,12.8-4.3c3.3-2.9,4.9-6.8,4.9-11.7c0-2-0.3-3.7-1-5.2
			c-0.6-1.5-1.5-2.8-2.6-3.9c-1.1-1.1-2.4-2.1-3.9-2.8c-1.5-0.8-3.1-1.5-4.8-2.1c-1.7-0.6-3.2-1.2-4.5-1.6c-1.3-0.4-2.5-0.8-3.6-1.2
			c-1.1-0.4-2.2-0.8-3.4-1.2c-1.2-0.4-2.6-0.9-4.2-1.6c-1.9-0.7-3.6-1.7-5.4-2.9c-1.7-1.2-3.2-2.7-4.5-4.4c-1.3-1.7-2.3-3.5-3.1-5.6
			c-0.8-2-1.2-4.2-1.2-6.5c0-3.9,0.7-7.2,2.1-10c1.4-2.8,3.3-5.1,5.7-7c2.4-1.9,5.1-3.2,8.2-4.1c3.1-0.9,6.4-1.3,9.8-1.3
			c3.2,0,6,0.3,8.2,0.8c2.3,0.5,4.2,1.1,5.6,1.8c1.5,0.6,2.6,1.2,3.3,1.8c0.7,0.5,1.2,0.8,1.2,0.8c0.2,0,0.7-0.4,1.3-1.3
			c0.7-0.9,1.3-1.7,1.9-2.6h1.2v19.8h-1.2c-0.9-2.4-2-4.7-3.3-7c-1.4-2.3-2.9-4.4-4.7-6.2c-1.8-1.8-3.8-3.3-6.1-4.4
			c-2.3-1.1-4.8-1.7-7.6-1.7c-2.2,0-4.3,0.3-6.3,1s-3.7,1.6-5.1,2.9c-1.5,1.3-2.6,2.9-3.4,4.8c-0.8,1.9-1.2,4-1.2,6.5
			c0,3.8,1.1,6.8,3.4,9.1c2.3,2.3,5.2,4.1,8.9,5.5c1.4,0.6,2.8,1.1,4,1.5c1.2,0.4,2.5,0.8,3.7,1.2c1.2,0.4,2.4,0.8,3.7,1.2
			c1.2,0.4,2.5,0.9,3.9,1.4c4.8,1.8,8.6,4.4,11.3,7.8c2.7,3.4,4,7.6,4,12.7C327.7,139.6,327,142.7,325.6,145.4z"/>
		<path className="st0" d="M424,157.3h-65.5v-1.1c1.8-0.3,3.4-0.8,5-1.4c1.5-0.6,2.8-1.5,3.8-2.7c0.4-0.4,0.6-1.1,0.9-1.9
			c0.2-0.8,0.4-1.8,0.6-2.8c0.2-1.1,0.3-2.2,0.4-3.4c0.1-1.2,0.1-2.3,0.1-3.5c0-1,0-2.4,0.1-4.1c0-1.7,0.1-3.6,0.1-5.6
			c0-2,0.1-4.1,0.1-6.3c0-2.2,0-4.3,0-6.2V97.6c0-1.3,0-2.6-0.1-4c0-1.4-0.1-2.6-0.2-3.9c-0.1-1.2-0.3-2.3-0.5-3.3
			c-0.3-1-0.6-1.7-1-2.1c-1.1-1.1-2.2-1.9-3.4-2.2c-1.2-0.3-2.8-0.6-4.7-0.9v-1.1h59.1l7.3,17.7l-1.1,0.5
			c-5.8-7.2-11.2-12.1-16.3-14.6c-1.2-0.6-3.5-1.1-6.7-1.5c-3.3-0.4-7.3-0.6-12-0.6c-1.5,0-3,0.1-4.7,0.2c-1.6,0.1-2.8,0.2-3.5,0.4
			c-0.1,1.1-0.3,3.5-0.4,7.1c-0.1,3.6-0.2,7.7-0.2,12.4c0,2.7,0,5,0,6.8s0,3.4,0.1,4.5c0,1.2,0.1,2.1,0.1,2.7c0,0.6,0,1,0,1.2
			c0.4,0,1.1,0,2.1,0c1.1,0,2.3,0,3.7-0.1c1.4-0.1,2.8-0.2,4.2-0.3c1.4-0.1,2.6-0.3,3.5-0.5c2.1-0.5,3.9-1.2,5.4-2
			c1.4-0.9,2.6-1.9,3.5-3.1c0.9-1.2,1.6-2.6,2.1-4.2c0.5-1.6,1-3.4,1.4-5.4h1.3v33.7h-1.3c-0.6-2.3-1.4-4.6-2.6-7.1
			c-1.2-2.4-2.4-4.2-3.7-5.5c-1.1-1-2.5-1.8-4.1-2.5c-1.6-0.6-3.5-1-5.6-1.2c-1.1-0.1-2-0.1-2.7-0.2c-0.7,0-1.4-0.1-2.1-0.1
			c-0.6,0-1.4,0-2.1,0c-0.7,0-1.6,0-2.8,0c-0.1,1-0.2,2.5-0.2,4.4c0,1.9,0,3.9,0,6c0,0.9,0,2,0,3.2c0,1.2,0,2.4,0,3.6
			c0,1.1,0,2.2,0.1,3.3c0,1,0.1,1.9,0.1,2.6c0.1,2.3,0.2,4.4,0.4,6.5c0.2,2,0.6,3.5,1.2,4.5c0.6,1,2.2,1.7,4.6,2.1s5.1,0.6,7.9,0.6
			c1.2,0,2.8,0,4.7-0.1c1.9-0.1,3.9-0.3,5.9-0.5c2.3-0.3,4.4-0.8,6.3-1.7c1.9-0.8,3.8-2,5.6-3.5c1.8-1.5,3.5-3.3,5.2-5.5
			c1.7-2.2,3.4-4.8,5.2-7.9l1.2,0.3L424,157.3z"/>
		<path className="st0" d="M575.6,134.1c-2.1,4.9-5,9.1-8.7,12.6c-3.7,3.6-8,6.3-12.8,8.2c-4.9,1.9-10.1,2.9-15.6,2.9
			c-5.4,0-10.6-0.9-15.4-2.8c-4.9-1.9-9.1-4.6-12.7-8c-3.6-3.5-6.5-7.6-8.6-12.4c-2.1-4.8-3.2-10.1-3.2-15.9
			c0-6.1,1.1-11.6,3.3-16.5c2.2-4.9,5.2-9,8.9-12.4c3.7-3.4,8.1-6,13.2-7.8c5-1.8,10.3-2.7,15.9-2.7c6.1,0,11.5,1.1,16.3,3.2
			c4.8,2.1,8.9,5,12.3,8.6c3.4,3.6,5.9,7.8,7.7,12.5c1.8,4.7,2.7,9.6,2.7,14.8C578.9,123.9,577.8,129.2,575.6,134.1z M563.9,105.2
			c-1.1-4.4-2.8-8.4-5-12c-2.2-3.6-5-6.5-8.4-8.8c-3.4-2.2-7.3-3.4-11.9-3.4c-4.6,0-8.6,1.1-12,3.4c-3.4,2.2-6.2,5.2-8.3,8.7
			c-2.2,3.6-3.8,7.6-4.8,12.1c-1,4.5-1.6,9.1-1.6,13.7c0,4.9,0.6,9.5,1.7,14c1.1,4.5,2.8,8.5,5.1,11.9c2.2,3.4,5.1,6.2,8.5,8.2
			c3.4,2.1,7.3,3.1,11.8,3.1s8.4-1.1,11.7-3.4c3.3-2.3,6.1-5.2,8.3-8.8c2.2-3.6,3.9-7.7,5-12.1c1.1-4.5,1.7-9,1.7-13.5
			C565.6,114,565,109.6,563.9,105.2z"/>
		<path className="st0" d="M674.4,98.8c-2.9-3.6-5.7-6.7-8.3-9.3c-2.6-2.6-5.2-4.5-7.7-5.7c-1.2-0.6-3.4-1.1-6.6-1.4
			c-3.2-0.4-6.9-0.6-11.1-0.6c-0.7,0-1.5,0-2.5,0.1c-0.9,0-1.8,0.1-2.7,0.1c-0.9,0-1.7,0.1-2.4,0.1c-0.7,0-1.3,0.1-1.7,0.1
			c-0.1,0.4-0.2,0.9-0.3,1.3c-0.1,0.4-0.2,0.9-0.3,1.5c-0.1,0.6-0.1,1.3-0.2,2.2c-0.1,0.9-0.1,2-0.2,3.3c-0.1,2.5-0.1,5.2-0.2,8.2
			c0,3-0.1,5.8-0.1,8.4c0,2.6,0,4.9,0,6.8c0,1.9,0,3,0,3.3c0.2,0,0.9,0,1.9,0c1.1,0,2.4,0,3.8-0.1c1.4-0.1,2.8-0.2,4.3-0.3
			c1.5-0.1,2.7-0.3,3.7-0.5c2.6-0.6,4.6-1.3,6.1-2.2c1.5-0.9,2.7-2,3.5-3.3c0.9-1.3,1.5-2.7,1.8-4.2c0.4-1.5,0.7-3.2,1-5h1.3v34.5
			h-1.3c-0.6-2.3-1.4-4.7-2.5-7.2c-1.1-2.5-2.4-4.5-3.9-5.8c-1.4-1.2-2.8-2.1-4.3-2.7c-1.5-0.6-3.3-1-5.4-1.1
			c-1.1-0.1-2-0.1-2.8-0.2c-0.8,0-1.5-0.1-2.2-0.1c-0.7,0-1.5,0-2.2,0s-1.7,0-2.9,0c0,2.3,0,4.6,0,6.8c0,2.2,0,4.4,0,6.4
			c0,2,0,3.8,0.1,5.5c0,1.7,0.1,3.1,0.1,4.3c0.1,2.3,0.2,4.4,0.4,6.5c0.2,2,0.6,3.5,1.2,4.5c0.6,1,1.7,1.8,3.3,2.3
			c1.5,0.5,3.8,0.9,6.7,1v1.1h-34.2v-1.1c1.8-0.3,3.4-0.8,5-1.4c1.5-0.6,2.8-1.5,3.8-2.7c0.4-0.4,0.6-1.1,0.9-1.9
			c0.2-0.8,0.4-1.8,0.6-2.8c0.2-1.1,0.3-2.2,0.4-3.4c0.1-1.2,0.1-2.3,0.1-3.5c0-1,0-2.4,0.1-4.1c0-1.7,0.1-3.6,0.1-5.6
			c0-2,0.1-4.1,0.1-6.3c0-2.2,0-4.3,0-6.2V97.6c0-1.3,0-2.6-0.1-4c0-1.4-0.1-2.6-0.2-3.9c-0.1-1.2-0.3-2.3-0.5-3.3
			c-0.3-1-0.6-1.7-1-2.1c-1.1-1.1-2.2-1.9-3.4-2.2c-1.2-0.3-2.8-0.6-4.7-0.9v-1.1h59.5l7.3,18L674.4,98.8z"/>
		<path className="st0" d="M802.2,157.3c-0.6-0.6-1.1-1.1-1.4-1.4c-0.3-0.3-0.6-0.7-1-1.1c-0.4-0.4-0.8-1.1-1.3-1.9
			c-0.5-0.8-1.4-2.1-2.5-3.7c-1.4-2-2.6-3.8-3.6-5.4c-1-1.6-2.1-3.2-3.2-4.8c-1.1-1.6-2.2-3.2-3.5-4.8c-1.2-1.6-2.7-3.4-4.4-5.4
			c-1.4-1.6-3-3.2-4.7-4.6s-3.4-2.3-5.3-2.7c-1.4-0.3-2.4-0.4-3.1-0.4c-0.6,0-1.5,0-2.5-0.1c0,4.6,0,8.7,0,12.1c0,3.4,0,6.3,0.1,8.7
			c0.1,2.3,0.1,4.2,0.2,5.9c0.1,1.6,0.5,3,1.2,4.1c0.6,0.9,1.7,1.9,3.3,2.8c1.6,1,3.9,1.5,6.8,1.7v1.1h-34.2v-1.1
			c1.8-0.3,3.5-0.7,5.1-1.3c1.6-0.6,2.9-1.4,3.9-2.6c0.4-0.4,0.6-1.1,0.9-1.9s0.4-1.8,0.5-2.9c0.1-1.1,0.2-2.2,0.3-3.4
			c0.1-1.2,0.1-2.4,0.1-3.5c0-1,0-2.4,0.1-4.1c0-1.7,0.1-3.6,0.1-5.6c0-2,0.1-4.1,0.1-6.3c0-2.2,0-4.3,0-6.2V97.6
			c0-1.3,0-2.6-0.1-3.9c0-1.3-0.1-2.6-0.2-3.7c-0.1-1.2-0.3-2.2-0.5-3.2c-0.3-1-0.6-1.7-1-2.1c-1.1-1.1-2.3-1.9-3.6-2.3
			c-1.3-0.4-2.9-0.7-4.9-1v-1.1c0.6,0,2,0,4.4,0c2.4,0,5.2,0,8.2-0.1c3.1,0,6.1-0.1,9.2-0.1s5.6,0,7.5,0c4.8,0,9,0.1,12.7,0.4
			c3.7,0.3,7.1,1.2,10.2,2.9c3.1,1.6,5.7,3.9,7.6,6.7c1.9,2.8,2.9,6.4,2.9,10.6c0,2.6-0.5,5-1.4,7.1c-1,2.1-2.2,4-3.9,5.6
			c-1.6,1.6-3.5,3-5.6,4.1c-2.1,1.1-4.4,2.1-6.7,2.9v0.3c1.2,0.6,2.4,1.6,3.5,2.8c1.1,1.2,2.2,2.6,3.3,4.1c1.9,2.7,3.9,5.6,6,8.8
			c2.2,3.1,4.1,5.9,5.8,8.3c2.6,3.7,5.2,6.4,7.7,8.1c2.5,1.7,5.4,2.8,8.8,3.3v1.1H802.2z M791.6,90.6c-1.8-2.8-4.4-5-7.8-6.6
			c-1.7-0.8-3.5-1.4-5.4-1.7c-1.9-0.4-3.9-0.5-5.9-0.5c-1.5,0-2.7,0-3.6,0.1c-0.9,0.1-1.6,0.1-2.1,0.2c-0.1,0.4-0.1,0.8-0.2,1.1
			c-0.1,0.3-0.1,0.7-0.2,1.2c0,0.5-0.1,1.2-0.1,2.1c0,0.9-0.1,2.2-0.2,3.8c-0.1,2.5-0.1,5.3-0.2,8.5c0,3.1-0.1,6.2-0.1,9.1
			c0,2.9,0,5.5,0,7.7c0,2.1,0,3.5,0,4.1c2.9,0,5.7-0.1,8.2-0.4c2.5-0.2,5-0.8,7.3-1.6c2.3-0.7,4.2-1.7,5.9-2.9c1.6-1.2,3-2.6,4-4.1
			c1-1.5,1.8-3.2,2.3-5c0.5-1.8,0.7-3.6,0.7-5.6C794.2,96.6,793.4,93.4,791.6,90.6z"/>
		<path className="st0" d="M921.9,134.1c-2.1,4.9-5,9.1-8.7,12.6c-3.7,3.6-8,6.3-12.8,8.2c-4.9,1.9-10.1,2.9-15.6,2.9
			c-5.4,0-10.6-0.9-15.4-2.8c-4.9-1.9-9.1-4.6-12.7-8c-3.6-3.5-6.5-7.6-8.6-12.4c-2.1-4.8-3.2-10.1-3.2-15.9
			c0-6.1,1.1-11.6,3.3-16.5c2.2-4.9,5.2-9,8.9-12.4c3.7-3.4,8.1-6,13.2-7.8c5-1.8,10.3-2.7,15.9-2.7c6.1,0,11.5,1.1,16.3,3.2
			c4.8,2.1,8.9,5,12.3,8.6c3.4,3.6,5.9,7.8,7.7,12.5c1.8,4.7,2.7,9.6,2.7,14.8C925.1,123.9,924,129.2,921.9,134.1z M910.2,105.2
			c-1.1-4.4-2.8-8.4-5-12c-2.2-3.6-5-6.5-8.4-8.8c-3.4-2.2-7.3-3.4-11.9-3.4c-4.6,0-8.6,1.1-12,3.4c-3.4,2.2-6.2,5.2-8.3,8.7
			c-2.2,3.6-3.8,7.6-4.8,12.1c-1,4.5-1.6,9.1-1.6,13.7c0,4.9,0.6,9.5,1.7,14c1.1,4.5,2.8,8.5,5.1,11.9c2.2,3.4,5.1,6.2,8.5,8.2
			c3.4,2.1,7.3,3.1,11.8,3.1c4.5,0,8.4-1.1,11.7-3.4c3.3-2.3,6.1-5.2,8.3-8.8c2.2-3.6,3.9-7.7,5-12.1c1.1-4.5,1.7-9,1.7-13.5
			C911.8,114,911.3,109.6,910.2,105.2z"/>
		<path className="st0" d="M1007.2,145.4c-1.4,2.7-3.3,5-5.8,7c-2.5,1.9-5.4,3.4-8.8,4.3c-3.4,0.9-7.2,1.4-11.2,1.4
			c-3.5,0-6.5-0.2-9-0.6s-4.6-0.9-6.2-1.6c-1.6-0.6-2.9-1.2-3.7-1.7c-0.8-0.5-1.3-0.7-1.6-0.7s-0.7,0.4-1.4,1.3
			c-0.7,0.9-1.4,1.7-1.9,2.5h-1l-0.3-21.3h1.1c0.6,1.9,1.5,3.8,2.5,5.6c1,1.8,2.1,3.5,3.3,5.1c1.2,1.6,2.4,3,3.7,4.2
			c1.3,1.2,2.6,2.1,3.8,2.8c1.2,0.6,2.8,1.3,4.8,1.9c2,0.6,3.9,1,5.8,1c5.3,0,9.6-1.4,12.8-4.3c3.3-2.9,4.9-6.8,4.9-11.7
			c0-2-0.3-3.7-1-5.2c-0.6-1.5-1.5-2.8-2.6-3.9c-1.1-1.1-2.4-2.1-3.9-2.8c-1.5-0.8-3.1-1.5-4.8-2.1c-1.7-0.6-3.2-1.2-4.5-1.6
			c-1.3-0.4-2.5-0.8-3.6-1.2c-1.1-0.4-2.2-0.8-3.4-1.2c-1.2-0.4-2.6-0.9-4.2-1.6c-1.9-0.7-3.6-1.7-5.4-2.9c-1.7-1.2-3.2-2.7-4.5-4.4
			c-1.3-1.7-2.3-3.5-3.1-5.6c-0.8-2-1.2-4.2-1.2-6.5c0-3.9,0.7-7.2,2.1-10c1.4-2.8,3.3-5.1,5.7-7c2.4-1.9,5.1-3.2,8.2-4.1
			c3.1-0.9,6.4-1.3,9.8-1.3c3.2,0,6,0.3,8.2,0.8c2.3,0.5,4.2,1.1,5.6,1.8c1.5,0.6,2.6,1.2,3.3,1.8c0.7,0.5,1.2,0.8,1.2,0.8
			c0.2,0,0.7-0.4,1.3-1.3c0.7-0.9,1.3-1.7,1.9-2.6h1.2v19.8h-1.2c-0.9-2.4-2-4.7-3.3-7c-1.4-2.3-2.9-4.4-4.7-6.2
			c-1.8-1.8-3.8-3.3-6.1-4.4c-2.3-1.1-4.8-1.7-7.6-1.7c-2.2,0-4.3,0.3-6.3,1c-2,0.6-3.7,1.6-5.1,2.9c-1.5,1.3-2.6,2.9-3.4,4.8
			c-0.8,1.9-1.2,4-1.2,6.5c0,3.8,1.1,6.8,3.4,9.1c2.3,2.3,5.2,4.1,8.9,5.5c1.4,0.6,2.8,1.1,4,1.5c1.2,0.4,2.5,0.8,3.7,1.2
			c1.2,0.4,2.4,0.8,3.7,1.2c1.2,0.4,2.5,0.9,3.9,1.4c4.8,1.8,8.6,4.4,11.3,7.8c2.7,3.4,4,7.6,4,12.7
			C1009.3,139.6,1008.6,142.7,1007.2,145.4z"/>
		<path className="st0" d="M1105.6,157.3h-65.5v-1.1c1.8-0.3,3.4-0.8,5-1.4c1.5-0.6,2.8-1.5,3.8-2.7c0.4-0.4,0.6-1.1,0.9-1.9
			c0.2-0.8,0.4-1.8,0.6-2.8c0.2-1.1,0.3-2.2,0.4-3.4c0.1-1.2,0.1-2.3,0.1-3.5c0-1,0-2.4,0.1-4.1c0-1.7,0.1-3.6,0.1-5.6
			c0-2,0.1-4.1,0.1-6.3c0-2.2,0-4.3,0-6.2V97.6c0-1.3,0-2.6-0.1-4c0-1.4-0.1-2.6-0.2-3.9c-0.1-1.2-0.3-2.3-0.5-3.3
			c-0.3-1-0.6-1.7-1-2.1c-1.1-1.1-2.2-1.9-3.4-2.2c-1.2-0.3-2.8-0.6-4.7-0.9v-1.1h59.1l7.3,17.7l-1.1,0.5
			c-5.8-7.2-11.2-12.1-16.3-14.6c-1.2-0.6-3.5-1.1-6.7-1.5c-3.3-0.4-7.3-0.6-12-0.6c-1.5,0-3,0.1-4.7,0.2c-1.6,0.1-2.8,0.2-3.5,0.4
			c-0.1,1.1-0.3,3.5-0.4,7.1c-0.1,3.6-0.2,7.7-0.2,12.4c0,2.7,0,5,0,6.8s0,3.4,0.1,4.5c0,1.2,0.1,2.1,0.1,2.7c0,0.6,0,1,0,1.2
			c0.4,0,1.1,0,2.1,0s2.3,0,3.7-0.1c1.4-0.1,2.8-0.2,4.2-0.3c1.4-0.1,2.6-0.3,3.5-0.5c2.1-0.5,3.9-1.2,5.4-2
			c1.4-0.9,2.6-1.9,3.5-3.1c0.9-1.2,1.6-2.6,2.1-4.2c0.5-1.6,1-3.4,1.4-5.4h1.3v33.7h-1.3c-0.6-2.3-1.4-4.6-2.6-7.1
			c-1.2-2.4-2.4-4.2-3.7-5.5c-1.1-1-2.5-1.8-4.1-2.5c-1.6-0.6-3.5-1-5.6-1.2c-1.1-0.1-2-0.1-2.7-0.2c-0.7,0-1.4-0.1-2.1-0.1
			c-0.6,0-1.4,0-2.1,0c-0.7,0-1.6,0-2.8,0c-0.1,1-0.2,2.5-0.2,4.4c0,1.9,0,3.9,0,6c0,0.9,0,2,0,3.2c0,1.2,0,2.4,0,3.6
			c0,1.1,0,2.2,0.1,3.3c0,1,0.1,1.9,0.1,2.6c0.1,2.3,0.2,4.4,0.4,6.5c0.2,2,0.6,3.5,1.2,4.5c0.6,1,2.2,1.7,4.6,2.1s5.1,0.6,7.9,0.6
			c1.2,0,2.8,0,4.7-0.1c1.9-0.1,3.9-0.3,5.9-0.5c2.3-0.3,4.4-0.8,6.3-1.7c1.9-0.8,3.8-2,5.6-3.5c1.8-1.5,3.5-3.3,5.2-5.5
			c1.7-2.2,3.4-4.8,5.2-7.9l1.2,0.3L1105.6,157.3z"/>
		<path className="st0" d="M1190.8,145.4c-1.4,2.7-3.3,5-5.8,7c-2.5,1.9-5.4,3.4-8.8,4.3c-3.4,0.9-7.2,1.4-11.2,1.4
			c-3.5,0-6.5-0.2-9-0.6s-4.6-0.9-6.2-1.6c-1.6-0.6-2.9-1.2-3.7-1.7c-0.8-0.5-1.3-0.7-1.6-0.7s-0.7,0.4-1.4,1.3
			c-0.7,0.9-1.4,1.7-1.9,2.5h-1l-0.3-21.3h1.1c0.6,1.9,1.5,3.8,2.5,5.6c1,1.8,2.1,3.5,3.3,5.1c1.2,1.6,2.4,3,3.7,4.2
			c1.3,1.2,2.6,2.1,3.8,2.8c1.2,0.6,2.8,1.3,4.8,1.9c2,0.6,3.9,1,5.8,1c5.3,0,9.6-1.4,12.8-4.3c3.3-2.9,4.9-6.8,4.9-11.7
			c0-2-0.3-3.7-1-5.2c-0.6-1.5-1.5-2.8-2.6-3.9c-1.1-1.1-2.4-2.1-3.9-2.8c-1.5-0.8-3.1-1.5-4.8-2.1c-1.7-0.6-3.2-1.2-4.5-1.6
			c-1.3-0.4-2.5-0.8-3.6-1.2c-1.1-0.4-2.2-0.8-3.4-1.2c-1.2-0.4-2.6-0.9-4.2-1.6c-1.9-0.7-3.6-1.7-5.4-2.9c-1.7-1.2-3.2-2.7-4.5-4.4
			c-1.3-1.7-2.3-3.5-3.1-5.6c-0.8-2-1.2-4.2-1.2-6.5c0-3.9,0.7-7.2,2.1-10c1.4-2.8,3.3-5.1,5.7-7c2.4-1.9,5.1-3.2,8.2-4.1
			c3.1-0.9,6.4-1.3,9.8-1.3c3.2,0,6,0.3,8.2,0.8c2.3,0.5,4.2,1.1,5.6,1.8c1.5,0.6,2.6,1.2,3.3,1.8c0.7,0.5,1.2,0.8,1.2,0.8
			c0.2,0,0.7-0.4,1.3-1.3c0.7-0.9,1.3-1.7,1.9-2.6h1.2v19.8h-1.2c-0.9-2.4-2-4.7-3.3-7c-1.4-2.3-2.9-4.4-4.7-6.2
			c-1.8-1.8-3.8-3.3-6.1-4.4c-2.3-1.1-4.8-1.7-7.6-1.7c-2.2,0-4.3,0.3-6.3,1s-3.7,1.6-5.1,2.9c-1.5,1.3-2.6,2.9-3.4,4.8
			c-0.8,1.9-1.2,4-1.2,6.5c0,3.8,1.1,6.8,3.4,9.1c2.3,2.3,5.2,4.1,8.9,5.5c1.4,0.6,2.8,1.1,4,1.5c1.2,0.4,2.5,0.8,3.7,1.2
			c1.2,0.4,2.4,0.8,3.7,1.2s2.5,0.9,3.9,1.4c4.8,1.8,8.6,4.4,11.3,7.8c2.7,3.4,4,7.6,4,12.7C1192.9,139.6,1192.2,142.7,1190.8,145.4
			z"/>
	</g>
	<g>
		<path className="st0" d="M405.6,253.4c-0.3,0.9-0.8,1.7-1.4,2.4c-0.6,0.7-1.2,1.3-1.9,1.8c-0.7,0.5-1.4,0.9-2.1,1.1
			c-1.2,0.4-2.6,0.7-4.1,0.8c-1.5,0.1-2.9,0.1-4.3,0.1h-16.4v-0.5c0.8-0.1,1.5-0.3,2.3-0.6c0.7-0.3,1.3-0.7,1.7-1.2
			c0.2-0.2,0.3-0.5,0.4-0.8c0.1-0.4,0.2-0.8,0.3-1.3c0.1-0.5,0.1-1,0.2-1.5s0-1,0-1.5c0-0.4,0-1,0-1.8c0-0.8,0-1.6,0-2.5
			c0-0.9,0-1.8,0-2.8c0-1,0-1.9,0-2.8c0-1,0-1.8,0-2.5c0-0.7,0-1.4,0-2.1c0-0.7,0-1.4,0-2.1c0-0.7,0-1.6,0-2.5c0-0.6,0-1.2,0-1.7
			c0-0.6-0.1-1.2-0.2-1.7c-0.1-0.5-0.2-1-0.3-1.5c-0.1-0.4-0.3-0.7-0.5-0.9c-0.5-0.5-1-0.8-1.4-1c-0.5-0.2-1.1-0.3-2-0.4v-0.5h16.1
			c1.2,0,2.4,0.1,3.5,0.2c1.1,0.1,2.2,0.4,3.2,0.8c1.6,0.6,3,1.5,4,2.8c1,1.2,1.6,2.8,1.6,4.7c0,2.1-0.7,3.8-2,5.1
			c-1.4,1.3-3.1,2.2-5.3,2.6v0.2c1.1,0.1,2.3,0.4,3.4,0.8c1.1,0.4,2.1,1,3,1.7c0.9,0.7,1.6,1.6,2.1,2.6c0.5,1,0.8,2.1,0.8,3.4
			C406.1,251.5,405.9,252.5,405.6,253.4z M397.4,229.6c-0.8-1.2-1.8-2.1-3-2.7c-1.4-0.6-3.3-1-5.5-1c-0.7,0-1.3,0-1.8,0.1
			c-0.5,0.1-1,0.1-1.2,0.2c0,0.2-0.1,0.4-0.1,0.5c0,0.2-0.1,0.4-0.1,0.6c0,0.2,0,0.5,0,0.9c0,0.3,0,0.8-0.1,1.4
			c0,1.1-0.1,2.3-0.1,3.7s0,2.6,0,3.8c0,1.2,0,2.2,0,3c0,0.9,0,1.4,0,1.5c1,0,1.9,0,2.7,0s1.3,0,1.8,0c2.9-0.2,5-1,6.5-2.4
			c1.5-1.5,2.2-3.3,2.2-5.4C398.7,232.3,398.3,230.9,397.4,229.6z M400.1,248.2c-0.3-0.8-0.7-1.6-1.2-2.2c-0.5-0.7-1.1-1.3-1.9-1.8
			c-0.7-0.5-1.5-0.9-2.4-1.2c-0.7-0.2-1.4-0.4-2.1-0.5c-0.7-0.1-1.5-0.1-2.4-0.1h-4.6c0,1,0,2,0,3c0,1,0,2,0,2.9c0,0.9,0,1.7,0,2.5
			c0,0.7,0,1.4,0,1.9c0,1.2,0.1,2.2,0.2,3c0.1,0.8,0.3,1.4,0.7,1.9c0.3,0.3,0.7,0.6,1.3,0.9c0.6,0.2,1.4,0.4,2.5,0.4
			c0.9,0,1.9-0.1,3-0.2s2.1-0.5,3.1-1c1.3-0.7,2.4-1.6,3.1-2.8c0.7-1.2,1.1-2.6,1.1-4.2C400.5,249.9,400.4,249,400.1,248.2z"/>
		<path className="st0" d="M449.6,259.7h-29.2v-0.5c0.8-0.1,1.5-0.3,2.2-0.6c0.7-0.3,1.2-0.7,1.7-1.2c0.2-0.2,0.3-0.5,0.4-0.8
			c0.1-0.4,0.2-0.8,0.3-1.3c0.1-0.5,0.1-1,0.2-1.5s0-1,0-1.5c0-0.4,0-1,0-1.8c0-0.8,0-1.6,0-2.5c0-0.9,0-1.8,0-2.8c0-1,0-1.9,0-2.8
			v-9.3c0-0.6,0-1.2,0-1.8c0-0.6,0-1.2-0.1-1.7c0-0.5-0.1-1-0.2-1.5c-0.1-0.4-0.3-0.7-0.5-0.9c-0.5-0.5-1-0.8-1.5-1
			c-0.5-0.1-1.2-0.3-2.1-0.4v-0.5h26.3l3.2,7.9l-0.5,0.2c-2.6-3.2-5-5.4-7.2-6.5c-0.5-0.3-1.5-0.5-3-0.7c-1.5-0.2-3.2-0.3-5.3-0.3
			c-0.7,0-1.4,0-2.1,0.1c-0.7,0-1.2,0.1-1.5,0.2c-0.1,0.5-0.1,1.6-0.2,3.1c0,1.6-0.1,3.4-0.1,5.5c0,1.2,0,2.2,0,3c0,0.8,0,1.5,0,2
			s0,0.9,0,1.2c0,0.3,0,0.4,0,0.5c0.2,0,0.5,0,1,0c0.5,0,1,0,1.6,0c0.6,0,1.2-0.1,1.9-0.1c0.6,0,1.1-0.1,1.5-0.2
			c1-0.2,1.7-0.5,2.4-0.9c0.6-0.4,1.2-0.8,1.5-1.4c0.4-0.5,0.7-1.2,1-1.9c0.2-0.7,0.5-1.5,0.6-2.4h0.6v15h-0.6
			c-0.3-1-0.6-2.1-1.2-3.1c-0.5-1.1-1.1-1.9-1.6-2.4c-0.5-0.4-1.1-0.8-1.8-1.1c-0.7-0.3-1.5-0.5-2.5-0.5c-0.5,0-0.9-0.1-1.2-0.1
			c-0.3,0-0.6,0-1,0c-0.3,0-0.6,0-1,0c-0.3,0-0.7,0-1.2,0c-0.1,0.4-0.1,1.1-0.1,2c0,0.9,0,1.7,0,2.7c0,0.4,0,0.9,0,1.4
			c0,0.5,0,1.1,0,1.6c0,0.5,0,1,0,1.5c0,0.5,0,0.9,0,1.2c0,1,0.1,2,0.2,2.9c0.1,0.9,0.3,1.6,0.5,2c0.3,0.4,1,0.8,2.1,1
			c1.1,0.2,2.3,0.3,3.5,0.3c0.5,0,1.2,0,2.1,0c0.8,0,1.7-0.1,2.6-0.2c1-0.1,2-0.4,2.8-0.7c0.9-0.4,1.7-0.9,2.5-1.5
			c0.8-0.7,1.6-1.5,2.3-2.5s1.5-2.1,2.3-3.5l0.5,0.1L449.6,259.7z"/>
		<path className="st0" d="M493.2,226.6c-0.6,0.4-1,0.6-1.1,0.8c-0.1,0.1-0.2,0.2-0.4,0.5c-0.2,0.2-0.4,0.5-0.6,0.9
			c-0.2,0.4-0.5,0.9-0.8,1.5c-0.3,0.6-0.6,1.4-1,2.3c-0.6,1.5-1.3,3.2-2.1,5.1c-0.8,1.9-1.5,3.8-2.3,5.8c-0.8,2-1.6,4-2.4,6
			c-0.8,2-1.5,3.9-2.2,5.7L478,260h-0.6c-1-2.6-2-5-2.9-7.4c-0.9-2.3-1.8-4.6-2.6-6.7c-0.9-2.2-1.7-4.2-2.5-6.3
			c-0.8-2-1.6-4-2.4-6.1c-0.2-0.6-0.4-1.1-0.6-1.6s-0.4-0.9-0.5-1.2c-0.2-0.4-0.4-0.7-0.5-1.1c-0.2-0.3-0.4-0.7-0.5-1.1
			c-0.1-0.2-0.2-0.4-0.4-0.7c-0.2-0.3-0.5-0.6-0.8-0.9c-0.3-0.3-0.7-0.5-1.2-0.7c-0.5-0.2-1.1-0.3-1.8-0.4v-0.5h14.2v0.5
			c-0.2,0-0.4,0.1-0.9,0.1s-0.8,0.2-1.3,0.4c-0.4,0.2-0.8,0.4-1.1,0.7c-0.3,0.3-0.5,0.7-0.5,1.2c0,0.3,0.2,1,0.5,2
			c0.3,1.1,0.8,2.4,1.4,3.9c0.6,1.5,1.2,3.2,1.9,5c0.7,1.8,1.4,3.6,2.1,5.3c0.7,1.7,1.3,3.3,1.9,4.8c0.6,1.5,1.1,2.7,1.4,3.7
			c0.2-0.3,0.5-1.1,0.9-2.2c0.4-1.1,1-2.5,1.6-4.1c0.6-1.7,1.4-3.5,2.2-5.6c0.8-2.1,1.6-4.3,2.5-6.6c0.6-1.7,1-3.1,1.2-4
			c0.2-0.9,0.3-1.5,0.3-1.9c0-0.5-0.2-0.9-0.5-1.2c-0.3-0.3-0.7-0.6-1.2-0.8c-0.5-0.2-1-0.4-1.5-0.5c-0.5-0.1-1-0.2-1.4-0.2v-0.5
			h11.1v0.5C494.6,226,493.8,226.2,493.2,226.6z"/>
		<path className="st0" d="M534.4,259.7h-29.2v-0.5c0.8-0.1,1.5-0.3,2.2-0.6c0.7-0.3,1.2-0.7,1.7-1.2c0.2-0.2,0.3-0.5,0.4-0.8
			c0.1-0.4,0.2-0.8,0.3-1.3c0.1-0.5,0.1-1,0.2-1.5s0-1,0-1.5c0-0.4,0-1,0-1.8c0-0.8,0-1.6,0-2.5c0-0.9,0-1.8,0-2.8c0-1,0-1.9,0-2.8
			v-9.3c0-0.6,0-1.2,0-1.8c0-0.6,0-1.2-0.1-1.7c0-0.5-0.1-1-0.2-1.5c-0.1-0.4-0.3-0.7-0.5-0.9c-0.5-0.5-1-0.8-1.5-1
			c-0.5-0.1-1.2-0.3-2.1-0.4v-0.5h26.3l3.2,7.9l-0.5,0.2c-2.6-3.2-5-5.4-7.2-6.5c-0.5-0.3-1.5-0.5-3-0.7c-1.5-0.2-3.2-0.3-5.3-0.3
			c-0.7,0-1.4,0-2.1,0.1c-0.7,0-1.2,0.1-1.5,0.2c-0.1,0.5-0.1,1.6-0.2,3.1c0,1.6-0.1,3.4-0.1,5.5c0,1.2,0,2.2,0,3c0,0.8,0,1.5,0,2
			c0,0.5,0,0.9,0,1.2c0,0.3,0,0.4,0,0.5c0.2,0,0.5,0,1,0s1,0,1.6,0c0.6,0,1.2-0.1,1.9-0.1c0.6,0,1.1-0.1,1.5-0.2
			c1-0.2,1.7-0.5,2.4-0.9c0.6-0.4,1.2-0.8,1.5-1.4c0.4-0.5,0.7-1.2,1-1.9c0.2-0.7,0.5-1.5,0.6-2.4h0.6v15h-0.6
			c-0.3-1-0.6-2.1-1.2-3.1c-0.5-1.1-1.1-1.9-1.6-2.4c-0.5-0.4-1.1-0.8-1.8-1.1c-0.7-0.3-1.5-0.5-2.5-0.5c-0.5,0-0.9-0.1-1.2-0.1
			c-0.3,0-0.6,0-1,0c-0.3,0-0.6,0-1,0c-0.3,0-0.7,0-1.2,0c-0.1,0.4-0.1,1.1-0.1,2c0,0.9,0,1.7,0,2.7c0,0.4,0,0.9,0,1.4
			c0,0.5,0,1.1,0,1.6c0,0.5,0,1,0,1.5c0,0.5,0,0.9,0,1.2c0,1,0.1,2,0.2,2.9c0.1,0.9,0.3,1.6,0.5,2c0.3,0.4,1,0.8,2.1,1
			c1.1,0.2,2.3,0.3,3.5,0.3c0.5,0,1.2,0,2.1,0c0.8,0,1.7-0.1,2.6-0.2c1-0.1,2-0.4,2.8-0.7c0.9-0.4,1.7-0.9,2.5-1.5
			c0.8-0.7,1.6-1.5,2.3-2.5s1.5-2.1,2.3-3.5l0.5,0.1L534.4,259.7z"/>
		<path className="st0" d="M574.9,259.7c-0.3-0.3-0.5-0.5-0.6-0.6c-0.1-0.1-0.3-0.3-0.4-0.5c-0.2-0.2-0.4-0.5-0.6-0.8
			c-0.2-0.4-0.6-0.9-1.1-1.6c-0.6-0.9-1.1-1.7-1.6-2.4c-0.5-0.7-0.9-1.4-1.4-2.1c-0.5-0.7-1-1.4-1.5-2.1c-0.6-0.7-1.2-1.5-2-2.4
			c-0.6-0.7-1.3-1.4-2.1-2c-0.7-0.6-1.5-1-2.4-1.2c-0.6-0.1-1.1-0.2-1.4-0.2c-0.3,0-0.6,0-1.1,0c0,2.1,0,3.9,0,5.4
			c0,1.5,0,2.8,0,3.9c0,1,0.1,1.9,0.1,2.6c0,0.7,0.2,1.3,0.5,1.8c0.3,0.4,0.7,0.8,1.5,1.3c0.7,0.4,1.7,0.7,3,0.7v0.5h-15.2v-0.5
			c0.8-0.1,1.6-0.3,2.3-0.6c0.7-0.3,1.3-0.6,1.7-1.1c0.2-0.2,0.3-0.5,0.4-0.9c0.1-0.4,0.2-0.8,0.2-1.3c0-0.5,0.1-1,0.1-1.5
			c0-0.5,0-1.1,0-1.6c0-0.4,0-1,0-1.8c0-0.8,0-1.6,0-2.5c0-0.9,0-1.8,0-2.8c0-1,0-1.9,0-2.8v-9.3c0-0.6,0-1.2,0-1.7s0-1.1-0.1-1.7
			c0-0.5-0.1-1-0.2-1.4c-0.1-0.4-0.3-0.7-0.5-0.9c-0.5-0.5-1-0.8-1.6-1c-0.6-0.2-1.3-0.3-2.2-0.5v-0.5c0.3,0,0.9,0,2,0
			c1.1,0,2.3,0,3.7,0c1.4,0,2.7,0,4.1,0c1.4,0,2.5,0,3.3,0c2.1,0,4,0.1,5.7,0.2c1.7,0.1,3.2,0.6,4.5,1.3c1.4,0.7,2.5,1.7,3.4,3
			c0.9,1.3,1.3,2.8,1.3,4.7c0,1.2-0.2,2.2-0.6,3.2c-0.4,0.9-1,1.8-1.7,2.5c-0.7,0.7-1.5,1.3-2.5,1.8c-1,0.5-2,0.9-3,1.3v0.1
			c0.5,0.3,1.1,0.7,1.6,1.2c0.5,0.5,1,1.1,1.5,1.8c0.8,1.2,1.7,2.5,2.7,3.9c1,1.4,1.8,2.6,2.6,3.7c1.2,1.7,2.3,2.9,3.4,3.6
			c1.1,0.8,2.4,1.3,3.9,1.5v0.5H574.9z M570.2,230c-0.8-1.2-2-2.2-3.5-3c-0.8-0.3-1.6-0.6-2.4-0.8c-0.8-0.2-1.7-0.2-2.6-0.2
			c-0.7,0-1.2,0-1.6,0c-0.4,0-0.7,0.1-1,0.1c0,0.2-0.1,0.4-0.1,0.5c0,0.1-0.1,0.3-0.1,0.5c0,0.2,0,0.5,0,0.9c0,0.4,0,1-0.1,1.7
			c0,1.1-0.1,2.4-0.1,3.8c0,1.4,0,2.7,0,4c0,1.3,0,2.4,0,3.4c0,1,0,1.6,0,1.8c1.3,0,2.5-0.1,3.6-0.2c1.1-0.1,2.2-0.3,3.3-0.7
			c1-0.3,1.9-0.7,2.6-1.3c0.7-0.5,1.3-1.2,1.8-1.8c0.5-0.7,0.8-1.4,1-2.2c0.2-0.8,0.3-1.6,0.3-2.5C571.4,232.7,571,231.3,570.2,230z
			"/>
		<path className="st0" d="M624.7,259.7h-30.6v-0.5c0.8-0.1,1.6-0.3,2.4-0.6c0.8-0.3,1.4-0.7,1.8-1.2c0.2-0.2,0.3-0.5,0.4-0.8
			c0.1-0.4,0.2-0.8,0.3-1.3c0.1-0.5,0.1-1,0.2-1.5c0-0.5,0.1-1,0.1-1.5c0-0.4,0-1,0-1.8c0-0.8,0-1.6,0-2.5c0-0.9,0-1.8,0-2.8
			c0-1,0-1.9,0-2.8v-9.2c0-0.6,0-1.1,0-1.7c0-0.6,0-1.1-0.1-1.6c0-0.5-0.1-0.9-0.2-1.3c-0.1-0.4-0.2-0.7-0.4-0.9
			c-0.4-0.5-1-1-1.8-1.2c-0.7-0.3-1.5-0.5-2.4-0.6v-0.5h15.2v0.5c-0.4,0.1-0.9,0.2-1.5,0.3c-0.6,0.1-1.1,0.3-1.6,0.6
			c-0.5,0.3-0.9,0.7-1.3,1.2c-0.4,0.5-0.6,1.2-0.6,2.1c0,1.1-0.1,2.1-0.1,3c0,0.9,0,1.8,0,2.7c0,0.9,0,1.8,0,2.8c0,1,0,2,0,3.2
			c0,1.1,0,2.1,0,3c0,0.9,0,1.7,0,2.5s0,1.7,0,2.6c0,0.9,0,1.9,0,2.9c0,1,0.1,2,0.1,2.9c0,0.9,0.2,1.6,0.5,2.1
			c0.1,0.2,0.4,0.3,0.8,0.5c0.4,0.2,0.8,0.3,1.4,0.4c0.5,0.1,1.1,0.2,1.8,0.3c0.6,0.1,1.3,0.1,1.9,0.1c0.3,0,0.7,0,1.2,0
			c0.6,0,1.2,0,1.8-0.1c0.7,0,1.3-0.1,2-0.2c0.7-0.1,1.3-0.2,1.9-0.4c1.3-0.3,2.3-0.8,3.2-1.4c0.8-0.6,1.6-1.2,2.2-2
			c0.6-0.7,1.1-1.6,1.5-2.4c0.4-0.9,0.8-1.8,1.2-2.7l0.5,0.1L624.7,259.7z"/>
		<path className="st0" d="M666,226.5c-0.6,0.3-1.2,0.7-1.8,1.2c-0.5,0.5-1.1,1.1-1.5,1.8c-0.5,0.7-1,1.5-1.6,2.4
			c-0.4,0.6-0.9,1.4-1.6,2.5c-0.7,1-1.4,2.1-2.1,3.2c-0.7,1.1-1.4,2.2-2.1,3.2c-0.7,1-1.2,1.8-1.6,2.4v9.6c0,0.9,0,1.8,0.1,2.7
			c0,0.9,0.2,1.5,0.5,1.8c0.5,0.7,1.1,1.2,1.9,1.4c0.8,0.2,1.5,0.4,2.2,0.5v0.5h-14.7v-0.5c0.8-0.1,1.6-0.2,2.2-0.5
			c0.6-0.2,1.3-0.7,2-1.5c0.2-0.2,0.3-0.4,0.4-0.8c0.1-0.4,0.1-0.8,0.2-1.3c0-0.5,0.1-1,0.1-1.5c0-0.5,0-1.1,0-1.6
			c0-0.9,0.1-1.9,0.1-3.2c0-1.2,0-2.7,0-4.5c-0.1-0.1-0.3-0.4-0.6-0.9c-0.3-0.5-0.7-1.1-1.2-1.9s-1-1.6-1.5-2.5
			c-0.6-0.9-1.1-1.8-1.6-2.7c-0.5-0.9-1-1.7-1.5-2.5s-0.9-1.4-1.2-1.9c-0.6-0.9-1.2-1.8-1.6-2.5c-0.5-0.8-1-1.4-1.5-2
			c-0.5-0.5-1-1-1.5-1.3c-0.5-0.3-1.1-0.5-1.7-0.5v-0.5H649v0.5c-0.5,0-1,0.1-1.4,0.1c-0.5,0.1-0.9,0.2-1.3,0.3
			c-0.4,0.1-0.7,0.3-1,0.6c-0.3,0.2-0.4,0.6-0.4,1c0,0.4,0.2,1,0.7,1.9c0.5,0.8,0.9,1.7,1.5,2.6c0.3,0.6,0.8,1.3,1.2,2.1
			s1,1.7,1.6,2.6c0.6,0.9,1.2,1.8,1.7,2.8c0.6,1,1.1,1.9,1.6,2.7c0.4-0.6,0.9-1.4,1.5-2.3c0.6-0.9,1.2-1.9,1.8-2.9
			c0.6-1,1.2-1.9,1.8-2.8c0.6-0.9,1-1.6,1.3-2.1c0.2-0.3,0.3-0.5,0.5-0.9c0.2-0.3,0.4-0.7,0.5-1c0.2-0.4,0.3-0.7,0.5-1.1
			c0.1-0.4,0.2-0.7,0.2-1c0-0.5-0.1-0.9-0.4-1.2c-0.3-0.3-0.6-0.5-1-0.7c-0.4-0.2-0.8-0.3-1.3-0.4c-0.5-0.1-0.9-0.2-1.4-0.2v-0.5h11
			v0.5C667.4,226,666.6,226.2,666,226.5z"/>
		<path className="st0" d="M721.7,259.7v-0.5c1.2-0.1,2.2-0.3,3-0.6c0.8-0.3,1.3-0.7,1.6-1.1c0.1-0.1,0.1-0.3,0.2-0.6
			c0-0.3,0.1-0.6,0.1-1c0-0.4,0.1-0.8,0.1-1.2c0-0.4,0-0.8,0-1.2c0-1,0-2.1,0-3.2c0-1.1,0-2.2,0-3.2c0-1,0-1.9,0-2.7
			c0-0.8,0-1.4,0-1.7h-18.8V253c0,0.9,0,1.8,0,2.7c0,0.9,0.2,1.5,0.4,1.8c0.4,0.5,0.9,1,1.6,1.2s1.4,0.5,2,0.5v0.5h-14.1v-0.5
			c0.8-0.1,1.6-0.3,2.3-0.6c0.7-0.3,1.3-0.7,1.7-1.1c0.1-0.2,0.2-0.4,0.3-0.8c0.1-0.4,0.1-0.8,0.2-1.3c0-0.5,0.1-1,0.1-1.5
			c0-0.6,0-1.1,0-1.6c0-0.4,0-1,0-1.8c0-0.8,0-1.6,0-2.5c0-0.9,0-1.8,0-2.8c0-1,0-1.9,0-2.8v-9.3c0-0.6,0-1.1,0-1.7s0-1.1-0.1-1.6
			c0-0.5-0.1-0.9-0.2-1.3c-0.1-0.4-0.2-0.7-0.4-0.9c-0.4-0.5-1-0.9-1.6-1.2c-0.7-0.2-1.4-0.4-2.2-0.5v-0.5h14.2v0.5
			c-0.4,0.1-0.9,0.2-1.4,0.3c-0.5,0.1-1,0.3-1.4,0.6c-0.4,0.3-0.8,0.6-1,1.1c-0.3,0.5-0.4,1.1-0.5,1.8c0,1.1-0.1,2.3-0.1,3.6
			c0,1.3,0,2.5,0,3.7c0,1.1,0,2.2,0,3c0,0.9,0,1.4,0,1.8h18.8c0-1,0-1.9,0-2.8c0-0.9,0-1.7,0-2.5c0-0.8,0-1.6,0-2.4
			c0-0.8,0-1.8,0-2.8c0-0.6-0.1-1.2-0.1-1.9c0-0.7-0.2-1.2-0.5-1.6c-0.6-0.9-1.2-1.4-2-1.6c-0.7-0.2-1.5-0.3-2.2-0.4v-0.5h14.3v0.5
			c-0.8,0.1-1.5,0.3-2.2,0.6c-0.7,0.3-1.3,0.8-1.6,1.5c-0.1,0.2-0.2,0.5-0.3,0.9c-0.1,0.4-0.1,0.8-0.1,1.3c0,0.5,0,1,0,1.5
			c0,0.5,0,1,0,1.5v8.1c0,1.2,0,2.2,0,3.2c0,0.9,0,1.8,0,2.8c0,0.9,0,1.8,0,2.8c0,1,0,2,0,3.1c0,0.9,0,1.8,0.1,2.5
			c0,0.8,0.2,1.3,0.4,1.6c0.4,0.6,1,1.1,1.7,1.3c0.7,0.3,1.5,0.4,2.3,0.5v0.5H721.7z"/>
		<path className="st0" d="M750.4,259.7v-0.5c0.8-0.1,1.5-0.3,2.2-0.6s1.3-0.7,1.7-1.2c0.2-0.2,0.3-0.5,0.4-0.8c0.1-0.3,0.1-0.8,0.2-1.2
			c0-0.5,0.1-1,0.1-1.5c0-0.5,0-1,0-1.5c0-0.4,0-1,0-1.8c0-0.8,0-1.6,0-2.5c0-0.9,0-1.8,0-2.8c0-1,0-1.9,0-2.8v-9.3
			c0-0.6,0-1.1,0-1.7s0-1.1-0.1-1.6c0-0.5-0.1-0.9-0.2-1.3c-0.1-0.4-0.2-0.7-0.4-0.9c-0.4-0.5-1-0.9-1.6-1.2
			c-0.7-0.2-1.4-0.4-2.2-0.5v-0.5h14.2v0.5c-0.7,0.1-1.4,0.3-2.1,0.5c-0.8,0.3-1.4,0.8-1.8,1.5c-0.3,0.5-0.4,1.2-0.5,2
			c0,0.8,0,1.6-0.1,2.3c0,0.8,0,1.6,0,2.4c0,0.8,0,1.6,0,2.4c0,0.8,0,1.6,0,2.5c0,0.8,0,1.7,0,2.7V253c0,0.9,0,1.8,0,2.7
			c0,0.9,0.2,1.5,0.4,1.8c0.4,0.5,1,1,1.8,1.2c0.8,0.3,1.6,0.5,2.2,0.5v0.5H750.4z"/>
		<path className="st0" d="M809,259.7h-30.6v-0.5c0.8-0.1,1.6-0.3,2.4-0.6c0.8-0.3,1.4-0.7,1.8-1.2c0.2-0.2,0.3-0.5,0.4-0.8
			c0.1-0.4,0.2-0.8,0.3-1.3c0.1-0.5,0.1-1,0.2-1.5c0-0.5,0.1-1,0.1-1.5c0-0.4,0-1,0-1.8c0-0.8,0-1.6,0-2.5c0-0.9,0-1.8,0-2.8
			c0-1,0-1.9,0-2.8v-9.2c0-0.6,0-1.1,0-1.7c0-0.6,0-1.1-0.1-1.6c0-0.5-0.1-0.9-0.2-1.3c-0.1-0.4-0.2-0.7-0.4-0.9
			c-0.4-0.5-1-1-1.8-1.2c-0.7-0.3-1.5-0.5-2.4-0.6v-0.5h15.2v0.5c-0.4,0.1-0.9,0.2-1.5,0.3s-1.1,0.3-1.6,0.6
			c-0.5,0.3-0.9,0.7-1.3,1.2c-0.4,0.5-0.6,1.2-0.6,2.1c0,1.1-0.1,2.1-0.1,3c0,0.9,0,1.8,0,2.7c0,0.9,0,1.8,0,2.8c0,1,0,2,0,3.2
			c0,1.1,0,2.1,0,3c0,0.9,0,1.7,0,2.5s0,1.7,0,2.6c0,0.9,0,1.9,0,2.9c0,1,0.1,2,0.1,2.9c0,0.9,0.2,1.6,0.5,2.1
			c0.1,0.2,0.4,0.3,0.8,0.5c0.4,0.2,0.8,0.3,1.4,0.4c0.5,0.1,1.1,0.2,1.8,0.3c0.6,0.1,1.3,0.1,1.9,0.1c0.3,0,0.7,0,1.2,0
			c0.6,0,1.2,0,1.8-0.1c0.7,0,1.3-0.1,2-0.2c0.7-0.1,1.3-0.2,1.9-0.4c1.3-0.3,2.3-0.8,3.2-1.4c0.8-0.6,1.6-1.2,2.2-2
			c0.6-0.7,1.1-1.6,1.5-2.4c0.4-0.9,0.8-1.8,1.2-2.7l0.5,0.1L809,259.7z"/>
		<path className="st0" d="M852.2,259.7h-30.6v-0.5c0.8-0.1,1.6-0.3,2.4-0.6c0.8-0.3,1.4-0.7,1.8-1.2c0.2-0.2,0.3-0.5,0.4-0.8
			c0.1-0.4,0.2-0.8,0.3-1.3c0.1-0.5,0.1-1,0.2-1.5c0-0.5,0.1-1,0.1-1.5c0-0.4,0-1,0-1.8c0-0.8,0-1.6,0-2.5c0-0.9,0-1.8,0-2.8
			c0-1,0-1.9,0-2.8v-9.2c0-0.6,0-1.1,0-1.7c0-0.6,0-1.1-0.1-1.6c0-0.5-0.1-0.9-0.2-1.3c-0.1-0.4-0.2-0.7-0.4-0.9
			c-0.4-0.5-1-1-1.8-1.2c-0.7-0.3-1.5-0.5-2.4-0.6v-0.5h15.2v0.5c-0.4,0.1-0.9,0.2-1.5,0.3s-1.1,0.3-1.6,0.6
			c-0.5,0.3-0.9,0.7-1.3,1.2c-0.4,0.5-0.6,1.2-0.6,2.1c0,1.1-0.1,2.1-0.1,3c0,0.9,0,1.8,0,2.7c0,0.9,0,1.8,0,2.8c0,1,0,2,0,3.2
			c0,1.1,0,2.1,0,3c0,0.9,0,1.7,0,2.5s0,1.7,0,2.6c0,0.9,0,1.9,0,2.9c0,1,0.1,2,0.1,2.9c0,0.9,0.2,1.6,0.5,2.1
			c0.1,0.2,0.4,0.3,0.8,0.5c0.4,0.2,0.8,0.3,1.4,0.4c0.5,0.1,1.1,0.2,1.8,0.3c0.6,0.1,1.3,0.1,1.9,0.1c0.3,0,0.7,0,1.2,0
			c0.6,0,1.2,0,1.8-0.1c0.7,0,1.3-0.1,2-0.2c0.7-0.1,1.3-0.2,1.9-0.4c1.3-0.3,2.3-0.8,3.2-1.4c0.8-0.6,1.6-1.2,2.2-2
			c0.6-0.7,1.1-1.6,1.5-2.4c0.4-0.9,0.8-1.8,1.2-2.7l0.5,0.1L852.2,259.7z"/>
		<path className="st0" d="M888.9,254.4c-0.6,1.2-1.5,2.2-2.6,3.1c-1.1,0.9-2.4,1.5-3.9,1.9c-1.5,0.4-3.2,0.6-5,0.6
			c-1.6,0-2.9-0.1-4-0.3c-1.1-0.2-2-0.4-2.8-0.7c-0.7-0.3-1.3-0.5-1.6-0.7c-0.4-0.2-0.6-0.3-0.7-0.3c-0.1,0-0.3,0.2-0.6,0.6
			c-0.3,0.4-0.6,0.7-0.9,1.1h-0.4l-0.1-9.5h0.5c0.3,0.9,0.6,1.7,1.1,2.5c0.4,0.8,0.9,1.6,1.5,2.3c0.5,0.7,1.1,1.3,1.7,1.9
			c0.6,0.5,1.2,1,1.7,1.2c0.5,0.3,1.3,0.6,2.1,0.9c0.9,0.3,1.7,0.4,2.6,0.4c2.4,0,4.3-0.6,5.7-1.9c1.5-1.3,2.2-3,2.2-5.2
			c0-0.9-0.1-1.7-0.4-2.3c-0.3-0.7-0.7-1.2-1.2-1.7c-0.5-0.5-1.1-0.9-1.7-1.3c-0.7-0.3-1.4-0.7-2.1-1c-0.8-0.3-1.4-0.5-2-0.7
			c-0.6-0.2-1.1-0.4-1.6-0.5c-0.5-0.2-1-0.3-1.5-0.5s-1.2-0.4-1.9-0.7c-0.8-0.3-1.6-0.8-2.4-1.3s-1.4-1.2-2-2
			c-0.6-0.7-1-1.6-1.4-2.5c-0.4-0.9-0.5-1.9-0.5-2.9c0-1.7,0.3-3.2,0.9-4.4c0.6-1.2,1.5-2.3,2.5-3.1s2.3-1.4,3.7-1.8
			s2.8-0.6,4.4-0.6c1.4,0,2.7,0.1,3.7,0.4c1,0.2,1.8,0.5,2.5,0.8c0.7,0.3,1.1,0.5,1.5,0.8c0.3,0.2,0.5,0.4,0.5,0.4
			c0.1,0,0.3-0.2,0.6-0.6c0.3-0.4,0.6-0.8,0.8-1.1h0.5v8.8h-0.5c-0.4-1-0.9-2.1-1.5-3.1c-0.6-1-1.3-2-2.1-2.8
			c-0.8-0.8-1.7-1.5-2.7-2c-1-0.5-2.1-0.8-3.4-0.8c-1,0-1.9,0.1-2.8,0.4c-0.9,0.3-1.6,0.7-2.3,1.3s-1.2,1.3-1.5,2.1
			c-0.4,0.8-0.5,1.8-0.5,2.9c0,1.7,0.5,3,1.5,4.1c1,1,2.3,1.8,3.9,2.4c0.6,0.3,1.2,0.5,1.8,0.7c0.6,0.2,1.1,0.4,1.6,0.5
			c0.5,0.2,1.1,0.4,1.6,0.5c0.6,0.2,1.1,0.4,1.7,0.6c2.2,0.8,3.8,1.9,5,3.5c1.2,1.5,1.8,3.4,1.8,5.6
			C889.9,251.8,889.6,253.2,888.9,254.4z"/>
	</g>
</g>
</svg>
