<?xml version="1.0" encoding="utf-8"?>
<!-- Generator: Adobe Illustrator 21.1.0, SVG Export Plug-In . SVG Version: 6.00 Build 0)  -->
<svg version="1.1" id="Layer_1" xmlns="http://www.w3.org/2000/svg" xmlns:xlink="http://www.w3.org/1999/xlink" x="0px" y="0px"
	 viewBox="0 0 390 390" style="enable-background:new 0 0 390 390;" xml:space="preserve">
<style type="text/css">
	.st0{fill:#FFFFFF;}
</style>
<path className="st0" d="M257.5,48.8C231.2,22.5,195,6.2,154.9,6.2C74.8,6.2,10.7,71.3,10.7,151.4c0,40.1,16.3,76.4,42.6,102.7
	c26.3,26.3,62.6,42.6,102.7,42.6c29,0,57.1-9,80.1-24c3.4-2.6,4.6-3.6,4.7-3.8v0l0.2-0.2l0.2-0.1c1.9-1.2,4.1-1.9,6.4-1.9
	c2.8,0,5.8,0.9,8.1,3.2l0,0l105,104c2.6,2.6,5.7,3.8,8.9,3.8c3.1,0,6.3-1.2,8.9-3.8c2.6-2.6,3.8-5.7,3.8-8.9c0-3.1-1.2-6.3-3.8-8.9
	l-105-105c-2.3-2.3-3.2-5.3-3.2-8.1c0-2.3,0.6-4.6,1.9-6.4l0.1-0.2l0.2-0.2c0,0,1-1,3.9-3.9c15-23,23.9-51,23.9-81
	C300.1,111.4,283.8,75.1,257.5,48.8z M239.8,236.4c-21.6,21.6-51.6,34.9-84.9,34.9c-33.3,0-63.3-13.3-84.9-34.9
	C48.3,214.7,35,184.7,35,151.4c0-33.3,13.3-63.3,34.9-84.9c21.6-21.6,51.6-34.9,84.9-34.9c33.3,0,63.3,13.3,84.9,34.9
	c21.6,21.6,34.9,51.6,34.9,84.9C274.7,184.7,261.4,214.7,239.8,236.4z"/>
<polygon points="222.3,238.2 222.3,238.2 222.3,238.2 "/>
</svg>
